<svg width="17" height="18" viewBox="0 0 17 18" fill="none" xmlns="http://www.w3.org/2000/svg">
<path d="M8.81171 0.188288C8.56066 -0.0627628 8.15363 -0.0627628 7.90257 0.188288L0.188288 7.90257C0.0677294 8.02313 0 8.18665 0 8.35714V17.3571C0 17.7122 0.287817 18 0.642857 18H6.42857C6.78361 18 7.07143 17.7122 7.07143 17.3571V12.2143H9.64286V17.3571C9.64286 17.7122 9.93067 18 10.2857 18H16.0714C16.4265 18 16.7143 17.7122 16.7143 17.3571V8.35714C16.7143 8.18665 16.6466 8.02313 16.526 7.90257L14.7857 6.16229V1.92857C14.7857 1.57353 14.4979 1.28571 14.1429 1.28571H12.8571C12.5021 1.28571 12.2143 1.57353 12.2143 1.92857V3.59086L8.81171 0.188288ZM1.28571 16.7143V8.62342L8.35714 1.55199L15.4286 8.62342V16.7143H10.9286V11.5714C10.9286 11.2164 10.6408 10.9286 10.2857 10.9286H6.42857C6.07353 10.9286 5.78571 11.2164 5.78571 11.5714V16.7143H1.28571Z" fill="black"/>
</svg>
