<svg width="18" height="20" viewBox="0 0 18 20" fill="none" xmlns="http://www.w3.org/2000/svg">
<path d="M8.75 20C10.1307 20 11.25 18.8807 11.25 17.5H6.25C6.25 18.8807 7.36929 20 8.75 20Z" fill="black"/>
<path d="M8.75 2.39781L7.75351 2.59906C5.4694 3.06036 3.75003 5.08079 3.75003 7.5C3.75003 8.28478 3.58207 10.2466 3.17644 12.1777C2.97508 13.1364 2.70568 14.1345 2.34762 15H15.1524C14.7943 14.1345 14.5249 13.1364 14.3236 12.1777C13.918 10.2466 13.75 8.28477 13.75 7.5C13.75 5.08077 12.0306 3.06034 9.7465 2.59906L8.75 2.39781ZM16.5241 15C16.8032 15.5592 17.1268 16.0012 17.5 16.25H0C0.373159 16.0012 0.696808 15.5592 0.975875 15C2.09903 12.7492 2.50003 8.59895 2.50003 7.5C2.50003 4.47417 4.65025 1.95056 7.50605 1.3738C7.50205 1.33308 7.5 1.29178 7.5 1.25C7.5 0.559644 8.05964 0 8.75 0C9.44036 0 10 0.559644 10 1.25C10 1.29177 9.99795 1.33307 9.99395 1.37379C12.8498 1.95053 15 4.47415 15 7.5C15 8.59895 15.401 12.7492 16.5241 15Z" fill="black"/>
</svg>
