<svg width="15" height="20" viewBox="0 0 15 20" fill="none" xmlns="http://www.w3.org/2000/svg">
<path d="M12.7072 11.1747C12.0522 12.5019 11.1656 13.8251 10.2572 15.0126C9.35165 16.1963 8.44303 17.221 7.7596 17.9506C7.66879 18.0475 7.58207 18.1391 7.5 18.2251C7.41793 18.1391 7.33121 18.0475 7.2404 17.9506C6.55697 17.221 5.64835 16.1963 4.74281 15.0126C3.83443 13.8251 2.94781 12.5019 2.29279 11.1747C1.63101 9.83384 1.25 8.57738 1.25 7.5C1.25 4.04822 4.04822 1.25 7.5 1.25C10.9518 1.25 13.75 4.04822 13.75 7.5C13.75 8.57738 13.369 9.83384 12.7072 11.1747ZM7.5 20C7.5 20 15 12.8921 15 7.5C15 3.35786 11.6421 0 7.5 0C3.35786 0 0 3.35786 0 7.5C0 12.8921 7.5 20 7.5 20Z" fill="black"/>
<path d="M7.5 10C6.11929 10 5 8.88071 5 7.5C5 6.11929 6.11929 5 7.5 5C8.88071 5 10 6.11929 10 7.5C10 8.88071 8.88071 10 7.5 10ZM7.5 11.25C9.57107 11.25 11.25 9.57107 11.25 7.5C11.25 5.42893 9.57107 3.75 7.5 3.75C5.42893 3.75 3.75 5.42893 3.75 7.5C3.75 9.57107 5.42893 11.25 7.5 11.25Z" fill="black"/>
</svg>
